<?xml version="1.0" encoding="UTF-8"?>
<svg xmlns="http://www.w3.org/2000/svg" version="1.1" viewBox="0 0 100 100">
  <defs>
    <style>
      .cls-1 {
        fill: #1d1d1b;
      }

      .cls-2 {
        fill: #fff;
      }

      .cls-3 {
        fill: #ef4444;
        stroke: #fff;
        stroke-width: 3px;
      }
    </style>
  </defs>
  <g>
    <g id="Calque_1">
      <g id="Calque_1-2" data-name="Calque_1">
        <g>
          <path class="cls-3" d="M50,5.7c-17.1,0-31,13.9-31,31s31,57.6,31,57.6c0,0,31-40.4,31-57.6s-13.9-31-31-31h0ZM50,52.2c-8.5,0-15.5-6.9-15.5-15.5s6.9-15.5,15.5-15.5h0c8.5,0,15.5,6.9,15.5,15.5s-6.9,15.5-15.5,15.5Z"/>
          <g>
            <path class="cls-1" d="M69.2,89c-1,0-1.6-.6-1.6-1.6v-14.9h-14.1c-1,0-1.6-.6-1.6-1.6v-4.1c0-1,.6-1.6,1.6-1.6h14.1v-14.8c0-1,.6-1.6,1.6-1.6h4.4c1,0,1.6.6,1.6,1.6v14.8h14.1c1,0,1.6.6,1.6,1.6v4.1c0,1-.6,1.6-1.6,1.6h-14.1v14.9c0,1-.6,1.6-1.6,1.6h-4.4Z"/>
            <path class="cls-2" d="M73.7,50.6v16.3h15.7v4.1h-15.7v16.5h-4.4v-16.5h-15.7v-4.1h15.7v-16.3h4.4M73.7,47.4h-4.4c-1.7,0-3.2,1.4-3.2,3.2v13.2h-12.5c-1.7,0-3.2,1.4-3.2,3.2v4.1c0,1.7,1.4,3.2,3.2,3.2h12.5v13.3c0,1.7,1.4,3.2,3.2,3.2h4.4c1.7,0,3.2-1.4,3.2-3.2v-13.3h12.5c1.7,0,3.2-1.4,3.2-3.2v-4.1c0-1.7-1.4-3.2-3.2-3.2h-12.5v-13.2c0-1.7-1.4-3.2-3.2-3.2h0Z"/>
          </g>
        </g>
      </g>
    </g>
  </g>
</svg>