<?xml version="1.0" encoding="UTF-8"?>
<svg xmlns="http://www.w3.org/2000/svg" version="1.1" viewBox="0 0 100 100">
  <defs>
    <style>
      .cls-1 {
        fill: white;
      }
    </style>
  </defs>
  <g>
    <g id="Calque_1">
      <g id="Calque_1-2">
        <g id="_xD83D__xDD0D_-Product-Icons">
          <g id="ic_fluent_my_location_24_regular">
            <path id="_xD83C__xDFA8_-Color" class="cls-1" d="M50,1.6c1.9,0,3.4,1.5,3.4,2.9h0v9.2h0c16.9,1.5,31,15.5,32.4,32.4h8.7c1.9,0,3.9,1.5,3.9,3.9s-1.5,3.4-2.9,3.4h-9.2c-1.5,16.9-15.5,31-32.4,32.4h0v8.7c0,1.9-1.5,3.9-3.9,3.9s-3.4-1.5-3.4-2.9h0v-9.2h0c-16.9-1.5-31-15.5-32.4-32.4H5.5c-1.9,0-3.9-1.5-3.9-3.9s1.5-3.4,2.9-3.4h9.2c1.5-16.9,15.5-31,32.4-32.4h0V5.5c0-1.9,1.5-3.9,3.9-3.9ZM50,21c-16,0-29,13.1-29,29s13.1,29,29,29,29-13.1,29-29-13.1-29-29-29ZM50,30.6c10.6,0,19.4,8.7,19.4,19.4s-8.7,19.4-19.4,19.4-19.4-8.7-19.4-19.4,8.7-19.4,19.4-19.4Z"/>
          </g>
        </g>
      </g>
    </g>
  </g>
</svg>