<?xml version="1.0" encoding="UTF-8"?>
<svg xmlns="http://www.w3.org/2000/svg" version="1.1" viewBox="0 0 100 100">
  <defs>
    <style>
      .cls-1 {
        fill: #1d1d1b;
      }

      .cls-2 {
        fill: #fff;
      }

      .cls-3 {
        fill: #ef4444;
        stroke: #fff;
        stroke-width: 3px;
      }
    </style>
  </defs>
  <!-- Generator: Adobe Illustrator 28.6.0, SVG Export Plug-In . SVG Version: 1.2.0 Build 709)  -->
  <g>
    <g id="Calque_1">
      <g id="Calque_1-2" data-name="Calque_1">
        <path class="cls-3" d="M50,2.2c-18.5,0-33.5,15-33.5,33.5s33.5,62.2,33.5,62.2c0,0,33.5-43.7,33.5-62.2S68.5,2.2,50,2.2h0ZM50,52.4c-9.2,0-16.7-7.5-16.7-16.7s7.5-16.7,16.7-16.7h0c9.2,0,16.7,7.5,16.7,16.7s-7.5,16.7-16.7,16.7Z"/>
        <g>
          <g>
            <path class="cls-1" d="M60.5,82.9v-1.1c0-3.4,2.3-4.3,4-5,.7-.2,1.1-.5,1.6-.8-1-1.3-1.7-2.2-1.7-3.1s.2-.9.6-1.3c0-.7,0-1.4.1-2,.3-.9.9-1.7,1.7-2.3.2,0,.3-.2.6-.2.3-.9.9-1,1.4-1h0c1.6,0,3.6,1.3,4.4,2,.7.7,1,1.6,1,2.5v1c.1.1.2.3.3.6h0c.2,1.3-.6,2.4-1.7,3.8.5.3,1,.6,1.6.8,1.7.7,4,1.6,4,5v1.1s-17.9,0-17.9,0Z"/>
            <path class="cls-2" d="M68.7,67.2c1.1,0,2.8,1,3.5,1.7s.7,1.1.7,1.8v1.6c.1,0,.3.2.5.3.2.9-2,3.1-2,3.4v.2c1.6,2.2,5.8,1.3,5.8,5.5h-15.6c0-4.3,4.2-3.3,5.8-5.5,0-.1.1-.2,0-.2,0-.2-2-2.3-2-3.1s.2-.7.6-.8c0-.7-.1-1.6,0-2.3.2-.7.7-1.3,1.3-1.6l.7-.3c.5-.1.2-.9.7-.9h0M68.7,64.9h0c-.3,0-1.6.1-2.2,1.4,0,0-.1,0-.2.1-1,.6-1.8,1.6-2.2,2.8-.2.7-.2,1.4-.2,1.9-.3.5-.5,1-.5,1.6h0c0,1,.5,1.8,1.1,2.7h-.2c-1.7.7-4.8,1.8-4.8,6v2.3h20.1v-2.3c0-4.2-3.1-5.5-4.8-6h-.2c.8-1,1.4-2.3,1-3.5h0v-.3c0-.2-.1-.3-.2-.6v-.6h0c0-1.3-.5-2.4-1.3-3.3-.9-1-3.3-2.5-5.2-2.5h0l-.3.2Z"/>
          </g>
          <g>
            <path class="cls-1" d="M69.4,92.7c-4.9,0-9.4-1.9-12.9-5.3s-5.3-8-5.3-12.9,1.9-9.4,5.3-12.9c3.4-3.4,8-5.3,12.9-5.3s9.4,1.9,12.9,5.3h0c3.4,3.5,5.2,8.1,5.2,12.9s-1.9,9.4-5.3,12.9-8,5.3-12.9,5.3h.1ZM69.4,61.8c-3.4,0-6.6,1.4-8.9,3.6s-3.6,5.6-3.6,8.9,1.4,6.6,3.6,8.9,5.6,3.6,8.9,3.6,6.6-1.4,9-3.6c2.4-2.4,3.6-5.6,3.6-8.9s-1.3-6.5-3.6-8.9c-2.5-2.5-5.6-3.8-9-3.8h0Z"/>
            <path class="cls-2" d="M69.4,57.4c4.7,0,9,1.9,12.1,5h0c3.1,3.2,4.9,7.4,4.9,12.1s-1.9,9-5,12.1c-3.1,3.1-7.4,5-12.1,5s-9-1.9-12.1-5c-3.1-3.1-5-7.4-5-12.1s1.9-9,5-12.1c3.1-3.1,7.4-5,12.1-5M69.4,88.2c3.8,0,7.3-1.6,9.8-4,2.5-2.5,4-5.9,4-9.8s-1.5-7.2-4-9.7h0c-2.5-2.5-5.9-4.1-9.8-4.1s-7.3,1.6-9.8,4c-2.5,2.5-4,5.9-4,9.8s1.6,7.3,4,9.8c2.5,2.5,5.9,4,9.8,4M69.4,55.1c-5.1,0-10,2-13.7,5.7s-5.7,8.5-5.7,13.7,2,10,5.7,13.7,8.5,5.7,13.7,5.7,10-2,13.7-5.7c3.6-3.6,5.7-8.5,5.7-13.7s-1.9-9.9-5.6-13.5h0c-3.6-3.6-8.5-5.7-13.7-5.7h-.1ZM69.4,86c-3.1,0-5.9-1.1-8.1-3.4-2.2-2.2-3.4-5-3.4-8.1s1.1-5.9,3.4-8.1c2.2-2.2,5-3.4,8.1-3.4s5.9,1.1,8.1,3.4h0c2.2,2.2,3.3,5,3.3,8.1s-1.1,5.9-3.4,8.1c-2.2,2.2-5,3.4-8.1,3.4h.1Z"/>
          </g>
        </g>
      </g>
    </g>
  </g>
</svg>